<svg width="588" height="561" viewBox="0 0 588 561" fill="none" xmlns="http://www.w3.org/2000/svg">
<path d="M0 65.1667C0 46.2774 6.62181 30.6941 19.8649 18.4167C33.1079 6.1387 50.3245 0 71.5135 0C92.3245 0 109.162 6.04407 122.027 18.1333C135.27 30.6 141.892 46.8441 141.892 66.8667C141.892 85 135.46 100.111 122.595 112.2C109.352 124.667 91.946 130.9 70.3784 130.9H69.8108C48.9998 130.9 32.1624 124.667 19.2973 112.2C6.43224 99.7333 0 84.0554 0 65.1667ZM7.37838 561V182.467H133.378V561H7.37838ZM203.189 561H329.189V349.633C329.189 336.411 330.703 326.211 333.73 319.033C339.027 306.189 347.068 295.327 357.851 286.45C368.635 277.572 382.162 273.133 398.432 273.133C440.811 273.133 462 301.655 462 358.7V561H588V343.967C588 288.055 574.757 245.65 548.27 216.75C521.784 187.85 486.784 173.4 443.27 173.4C394.459 173.4 356.432 194.367 329.189 236.3V237.433H328.622L329.189 236.3V182.467H203.189C203.946 194.555 204.324 232.144 204.324 295.233C204.324 358.322 203.946 446.911 203.189 561Z" fill="#333333"/>
</svg>
