<svg id="Layer_1" data-name="Layer 1" xmlns="http://www.w3.org/2000/svg" viewBox="0 0 639.38 606.85"><defs><style>.cls-1{fill:#fff;}</style></defs><path class="cls-1" d="M641.56,151.82H485.94c-9.16-65.06-65.2-115.27-132.75-115.27H328.14c-67.55,0-123.58,50.21-132.75,115.27H39.77A18.8,18.8,0,0,0,21,170.62v454A18.79,18.79,0,0,0,39.77,643.4H641.56a18.79,18.79,0,0,0,18.79-18.79v-454A18.8,18.8,0,0,0,641.56,151.82ZM328.14,74.14H353.2a96.65,96.65,0,0,1,94.64,77.68H233.5A96.64,96.64,0,0,1,328.14,74.14ZM58.57,189.41h564.2v152l-282.1,44.48L58.57,341.41Zm246.83,229,32.34,5.1h.14a18.85,18.85,0,0,0,5.71,0l32.35-5.1v39.15H305.4V418.39ZM58.57,605.81V379.47l209.24,33v63.88a18.8,18.8,0,0,0,18.8,18.79H394.72a18.8,18.8,0,0,0,18.8-18.79V412.46l209.25-33V605.81Z" transform="translate(-20.98 -36.55)"/></svg>