<svg xmlns="http://www.w3.org/2000/svg" data-name="Layer 1" viewBox="0 0 64 64"><rect width="60" height="32" x="2" y="3" fill="#fff" rx="3"/><circle cx="42" cy="42" r="17" fill="#b4f78d"/><path d="M14,16.5H12a1.0013,1.0013,0,0,1-1-1v-2a1.0013,1.0013,0,0,1,1-1h5a2.00021,2.00021,0,0,0-.00006-4H12a5.00588,5.00588,0,0,0-5,5v2a5.00588,5.00588,0,0,0,5,5h2a1.0013,1.0013,0,0,1,1,1v2a1.0013,1.0013,0,0,1-1,1H9a2,2,0,0,0,0,4h5a5.00588,5.00588,0,0,0,5-5v-2A5.00588,5.00588,0,0,0,14,16.5Z" opacity=".1"/><path d="M59,3H5A2.963,2.963,0,0,0,2.23,4.87.9721.9721,0,0,1,3,4.5H57a1.003,1.003,0,0,1,1,1v26a1.05355,1.05355,0,0,1-1.27,1A19.23848,19.23848,0,0,0,51.84,26.66,4.96542,4.96542,0,0,0,53,23.5v-10a5.00181,5.00181,0,0,0-5-5H44a5.00181,5.00181,0,0,0-5,5v9.03a18.91749,18.91749,0,0,0-7.47,1.97H28a1.003,1.003,0,0,1-1-1v-3h6a2.00019,2.00019,0,0,0,0-4H27v-3a1.003,1.003,0,0,1,1-1h5a2.00025,2.00025,0,0,0,0-4H28a5.00181,5.00181,0,0,0-5,5v10a4.983,4.983,0,0,0,3.43,4.72,19.74314,19.74314,0,0,0-3.16,4.28H3a1.003,1.003,0,0,1-1-1A3.07631,3.07631,0,0,0,5,35H26.46c3.54-7.23,12.89-10.99,20.6-6.74,8.7,4.46,10.65,16.83,3.67,23.71-9.12,9.52-25.54,2.96-25.72-10.14A16.98259,16.98259,0,0,0,42,59c12.32.16,20.55-13.18,15.48-24H59a3.11035,3.11035,0,0,0,3-3.5V6A2.996,2.996,0,0,0,59,3ZM49,23.5c-.21,1.44-1.04.72-1.9.37A20.75553,20.75553,0,0,0,43,22.74V13.5a1.003,1.003,0,0,1,1-1h4a1.003,1.003,0,0,1,1,1Z" opacity=".1"/><path fill="#4d4d4d" d="M14,12.5h5a2.00021,2.00021,0,0,0-.00009-4H14a5.00588,5.00588,0,0,0-5,5v2a5.00588,5.00588,0,0,0,5,5h2a1.0013,1.0013,0,0,1,1,1v2a1.0013,1.0013,0,0,1-1,1H11a2,2,0,0,0,0,4h5a5.00588,5.00588,0,0,0,5-5v-2a5.00588,5.00588,0,0,0-5-5H14a1.0013,1.0013,0,0,1-1-1v-2A1.0013,1.0013,0,0,1,14,12.5Z"/><path fill="#4d4d4d" d="M64,31.5V5.5a5.00588,5.00588,0,0,0-5-5H5a5.00588,5.00588,0,0,0-5,5v26a5.00588,5.00588,0,0,0,5,5H23.693c-3.44994,11.80515,5.99995,24.18417,18.30714,23.99982a18.84474,18.84474,0,0,0,11.94323-4.22834l6.64258,6.64258a1.99978,1.99978,0,0,0,2.82812-2.82812l-6.64282-6.64282a18.90732,18.90732,0,0,0,3.48683-17.12319A4.99522,4.99522,0,0,0,64,31.5Zm-60,0V5.5a1.0013,1.0013,0,0,1,1-1H59a1.001,1.001,0,0,1,1,1v26a1.0575,1.0575,0,0,1-1.26758,1,19.40766,19.40766,0,0,0-4.89-5.84A4.95131,4.95131,0,0,0,55,23.5v-10a5.00588,5.00588,0,0,0-5-5H46a5.00588,5.00588,0,0,0-5,5v9.03082A18.92249,18.92249,0,0,0,33.53137,24.5H30a1.0013,1.0013,0,0,1-1-1v-3h6a2.00021,2.00021,0,0,0-.00008-4H29v-3a1.0013,1.0013,0,0,1,1-1h5a2,2,0,0,0,0-4H30a5.00588,5.00588,0,0,0-5,5v10a4.99055,4.99055,0,0,0,3.42615,4.72168A19.96516,19.96516,0,0,0,25.26808,32.5H5A1.0013,1.0013,0,0,1,4,31.5Zm41-8.76221V13.5a1.001,1.001,0,0,1,1-1h4a1.001,1.001,0,0,1,1,1v10c-.20972,1.43895-1.03585.72044-1.89934.37287A20.4154,20.4154,0,0,0,45,22.73779ZM52.73151,51.967c-9.206,9.60521-25.81349,2.85114-25.7314-10.46723C26.8492,30.3657,39.2829,22.8724,49.0587,28.26485,57.76012,32.71552,59.71451,45.09212,52.73151,51.967Z"/></svg>