<svg height="682pt" viewBox="-21 -37 682.66669 682" width="682pt" xmlns="http://www.w3.org/2000/svg"><path d="m621.1875 114.636719h-155.773438c-9.171874-65.121094-65.257812-115.386719-132.875-115.386719h-25.082031c-67.613281 0-123.699219 50.265625-132.871093 115.386719h-155.773438c-10.390625 0-18.8125 8.421875-18.8125 18.8125v454.433593c0 10.390626 8.421875 18.8125 18.8125 18.8125h602.375c10.390625 0 18.8125-8.421874 18.8125-18.8125v-454.433593c0-10.390625-8.421875-18.8125-18.8125-18.8125zm-313.726562-77.757813h25.082031c46.8125 0 85.953125 33.480469 94.730469 77.757813h-214.546876c8.777344-44.277344 47.917969-77.757813 94.734376-77.757813zm-269.835938 115.382813h564.75v152.148437l-282.375 44.523438-282.375-44.523438zm247.070312 229.199219 32.375 5.105468c.042969.003906.09375.007813.136719.011719 1.898438.289063 3.828125.285156 5.722657-.011719l32.375-5.105468v39.195312h-70.601563v-39.195312zm-247.070312 187.609374v-226.566406l209.449219 33.027344v63.9375c0 10.390625 8.425781 18.816406 18.816406 18.816406h108.21875c10.390625 0 18.816406-8.425781 18.816406-18.816406v-63.9375l209.449219-33.027344v226.566406zm0 0"/></svg>