<?xml version="1.0" encoding="utf-8"?>
<!-- Generator: Adobe Illustrator 25.2.3, SVG Export Plug-In . SVG Version: 6.00 Build 0)  -->
<svg version="1.1" id="Layer_1" xmlns="http://www.w3.org/2000/svg" xmlns:xlink="http://www.w3.org/1999/xlink" x="0px" y="0px"
	 viewBox="0 0 512 512" style="enable-background:new 0 0 512 512;" xml:space="preserve">
<path d="M464.9,32H239.9c-26,0-47.1,21.1-47.1,47.1v144.3L151,202.7c-1.4-0.7-2.8-1.4-4.3-2c12.3-12.8,19.8-30.1,19.8-49.2
	c0-39.3-32-71.2-71.2-71.2c-39.3,0-71.2,32-71.2,71.2c0,21.3,9.4,40.5,24.4,53.6C21,220.5,0,250.6,0,288v48.2
	c0,20.8,13.5,38.4,32.1,44.7v83.8c0,8.3,6.7,15,15,15h96.4c8.3,0,15-6.7,15-15V296.2l48,24c18.4,9.2,43.3,3.7,54.6-17.2h53.8
	L258,459.6c-2.8,7.8,1.2,16.4,9,19.2c8.9,3.2,16.8-2.3,19.2-9L346.8,303h10.5l61.3,166.9c2.3,6.3,10.2,12.2,19.3,8.9
	c7.8-2.9,11.8-11.5,8.9-19.2L389.3,303h75.6c25.5,0,47.1-20.6,47.1-47.1V79.1C512,52.6,490.4,32,464.9,32z M54.1,151.4
	c0-22.7,18.5-41.2,41.2-41.2c22.7,0,41.2,18.5,41.2,41.2c0,22.7-18.5,41.2-41.2,41.2C72.6,192.7,54.1,174.2,54.1,151.4z M235.5,287
	c0,0.1-0.1,0.2-0.1,0.3c-1,2.9-3.3,5.3-6.2,6.4c-3,1.2-6.4,1.1-9.2-0.3c-28.5-14.3-69.7-34.9-69.7-34.9c-10-5-21.7,2.3-21.7,13.4
	v177.8H62.1v-81.4c0-8.3-6.7-15-15-15c-9.4,0-17.1-7.7-17.1-17.1V288c0-36.7,29.8-65.3,65.3-65.3h13.3c10.1,0,20.1,2.4,29.1,6.8
	c0,0,74.4,37,93.4,46.4C235.1,278,237,282.7,235.5,287z M482,255.9c0,4.6-1.8,8.9-5,12.1c-3.2,3.2-7.6,5-12.1,5H264.4
	c0-0.1,0-0.2-0.1-0.2l37.2-74.4c3.7-7.4,0.7-16.4-6.7-20.1c-7.4-3.7-16.4-0.7-20.1,6.7L243,248.4c-5.9-2.9-12.8-6.4-20.2-10V79.1
	c0-9.4,7.7-17.1,17.1-17.1h224.9c4.5,0,8.9,1.8,12.1,5c3.2,3.2,5,7.5,5,12.1V255.9z"/>
</svg>
