<svg width="799" height="690" viewBox="0 0 799 690" fill="none" xmlns="http://www.w3.org/2000/svg">
<circle cx="435.922" cy="118.405" r="73.5361" fill="#A0616A"/>
<path d="M381.036 155.173C381.036 155.173 394.891 259.615 373.576 271.339C352.261 283.062 500.399 284.127 500.399 284.127C500.399 284.127 467.361 193.539 482.281 165.83L381.036 155.173Z" fill="#A0616A"/>
<path d="M608.57 284.656L596.25 340.756L570.2 459.446L569.42 465.946L560.43 541.196L554.45 591.186L550.44 624.766C526.06 637.296 508.39 645.946 508.39 645.946C508.39 645.946 506.87 638.326 504.42 628.576C487.31 633.706 455.65 642.216 428.82 643.916C438.59 654.806 443.08 665.036 436.99 672.586C418.61 695.346 342.73 647.666 316.19 629.886C315.572 634.143 315.338 638.447 315.49 642.746L295.18 627.126L297.19 591.186L300.58 530.376L304.84 454.116C303.497 450.851 302.371 447.5 301.47 444.086C295.25 421.966 287.7 377.796 281.91 340.756C277.25 310.946 273.75 285.756 273.01 280.396C272.91 279.696 272.86 279.336 272.86 279.336L385.29 229.656C393.28 248.186 430.59 253.756 430.59 253.756C461.5 251.626 485.73 235.326 485.73 235.326L608.57 284.656Z" fill="#D0CDE1"/>
<path d="M516.92 624.636C516.92 624.636 512.16 626.266 504.42 628.576C487.31 633.706 455.65 642.216 428.82 643.916C405.72 645.396 386.2 641.836 382.63 626.766C381.1 620.286 383.27 614.956 388 610.576C402.12 597.486 439 592.796 468.25 591.186C476.51 590.736 484.15 590.526 490.51 590.446C501.31 590.306 508.39 590.526 508.39 590.526L508.56 591.186L516.92 624.636Z" fill="#A0616A"/>
<path d="M374.746 48.8467L360.997 43.3423C360.997 43.3423 389.746 11.6915 429.744 14.4438L418.494 2.05862C418.494 2.05862 445.993 -8.95024 470.992 19.9482C484.134 35.1394 499.339 52.996 508.817 73.1112H523.542L517.396 86.643L538.906 100.175L516.828 97.7442C518.144 105.154 518.346 112.719 517.428 120.189C516.48 127.661 512.667 134.473 506.793 139.187C506.793 139.187 489.741 103.891 489.741 98.3869V112.148C489.741 112.148 475.992 99.7631 475.992 91.5064L468.492 101.139L464.742 86.0018L418.494 101.139L425.994 88.7543L397.245 92.8826L408.495 77.7452C408.495 77.7452 375.997 95.6347 374.746 110.772C373.497 125.909 363.984 140.253 363.984 140.253C363.984 140.253 338.498 69.4884 374.746 48.8467Z" fill="#2F2E41"/>
<path d="M688.5 542.566C681.01 550.686 662.45 562.916 639.95 576.156C631.58 581.076 622.67 586.146 613.58 591.186C591.89 603.216 569.18 615.136 550.44 624.766C526.06 637.296 508.39 645.946 508.39 645.946C508.39 645.946 506.87 638.326 504.42 628.576C501.14 615.526 496.2 598.656 491.05 591.186C490.87 590.926 490.69 590.686 490.51 590.446C489.01 588.476 487.5 587.326 486.01 587.326L560.43 541.196L592.59 521.256L569.42 465.946L540.36 396.566L557.9 340.756L575.53 284.656H608.57C608.57 284.656 619.51 308.536 633.5 341.836C635.59 346.816 637.75 352.006 639.95 357.366C668.73 427.366 704.61 525.116 688.5 542.566Z" fill="#D0CDE1"/>
<path d="M436.99 672.586C418.61 695.346 342.73 647.666 316.19 629.886C310.41 626.016 306.97 623.566 306.97 623.566L331.25 591.186L338.94 580.936C338.94 580.936 345.82 584.586 355.99 590.526C356.36 590.746 356.73 590.966 357.11 591.186C365.88 596.336 376.89 603.066 388 610.576C403.33 620.946 418.83 632.776 428.82 643.916C438.59 654.806 443.08 665.036 436.99 672.586Z" fill="#A0616A"/>
<path d="M355.99 590.527C353.276 590.516 350.567 590.737 347.89 591.187C324.9 595.137 318.12 615.947 316.19 629.887C315.572 634.144 315.338 638.448 315.49 642.747L295.18 627.127L287.78 621.437C269.97 615.227 254.1 604.197 240.34 591.187C228.403 579.701 217.695 567.002 208.39 553.297C199.122 539.788 190.86 525.617 183.67 510.897C179.609 502.581 179.452 492.89 183.24 484.446L208.39 428.396L245.15 346.477C245.42 344.527 245.717 342.62 246.04 340.757C253.33 298.957 272.86 280.396 272.86 280.396H287.78L297.76 340.756L310.16 415.746L301.47 444.086L281.39 509.536L300.58 530.376L355.99 590.527Z" fill="#D0CDE1"/>
<path d="M372.877 415.806L385.631 430.686C390.37 429.783 395.319 428.721 400.416 427.529L396.752 415.806L405.71 426.256C459.707 412.975 526.637 387.155 526.637 387.155C526.637 387.155 454.379 392.453 400.428 380.666C376.558 375.451 351.998 387.284 342.202 409.669C336.508 422.679 337.403 433.951 357.596 433.951C364.419 433.835 371.224 433.195 377.949 432.037L372.877 415.806Z" fill="white"/>
<path d="M663.65 660.386V666.456C663.654 668.122 663.345 669.774 662.74 671.326C662.472 672.018 662.147 672.687 661.77 673.326C659.346 677.396 654.957 679.888 650.22 679.886H203.67C198.933 679.888 194.545 677.396 192.12 673.326C191.743 672.687 191.419 672.018 191.15 671.326C190.545 669.774 190.237 668.122 190.24 666.456L190.24 660.386C190.238 652.968 196.252 646.954 203.67 646.956H229.41V644.126C229.41 643.978 229.469 643.835 229.574 643.73C229.679 643.625 229.822 643.566 229.97 643.566H243.4C243.549 643.566 243.691 643.625 243.797 643.73C243.902 643.835 243.961 643.978 243.96 644.126V646.956H252.35V644.126C252.35 643.978 252.409 643.835 252.514 643.73C252.619 643.625 252.762 643.566 252.91 643.566H266.34C266.489 643.566 266.631 643.625 266.737 643.73C266.842 643.835 266.9 643.978 266.9 644.126L266.9 646.956H275.3V644.126C275.3 643.978 275.359 643.835 275.464 643.73C275.569 643.625 275.712 643.566 275.86 643.566H289.29C289.439 643.566 289.581 643.625 289.686 643.73C289.792 643.835 289.85 643.978 289.85 644.126V646.956H298.24V644.126C298.24 643.978 298.299 643.835 298.404 643.73C298.509 643.625 298.652 643.566 298.8 643.566H312.23C312.379 643.566 312.521 643.625 312.626 643.73C312.732 643.835 312.79 643.978 312.79 644.126V646.956H321.18V644.126C321.18 643.978 321.239 643.835 321.344 643.73C321.449 643.625 321.592 643.566 321.74 643.566H335.17C335.319 643.566 335.461 643.625 335.567 643.73C335.672 643.835 335.731 643.978 335.73 644.126L335.73 646.956H344.13V644.126C344.13 643.978 344.189 643.835 344.294 643.73C344.399 643.625 344.542 643.566 344.69 643.566H358.12C358.269 643.566 358.411 643.625 358.516 643.73C358.622 643.835 358.68 643.978 358.68 644.126V646.956H367.07V644.126C367.07 643.978 367.129 643.835 367.234 643.73C367.339 643.625 367.482 643.566 367.63 643.566H472.83C472.979 643.566 473.121 643.625 473.227 643.73C473.332 643.835 473.391 643.978 473.39 644.126V646.956H481.79V644.126C481.79 643.978 481.849 643.835 481.954 643.73C482.059 643.625 482.202 643.566 482.35 643.566H495.78C496.088 643.569 496.337 643.818 496.34 644.126L496.34 646.956H504.73V644.126C504.73 643.978 504.789 643.835 504.894 643.73C504.999 643.625 505.142 643.566 505.29 643.566H518.72C518.869 643.566 519.012 643.625 519.117 643.73C519.222 643.835 519.281 643.978 519.28 644.126L519.28 646.956H527.67V644.126C527.67 643.978 527.729 643.835 527.834 643.73C527.939 643.625 528.082 643.566 528.23 643.566H541.66C541.809 643.566 541.952 643.625 542.057 643.73C542.162 643.835 542.221 643.978 542.22 644.126V646.956H550.62V644.126C550.62 643.978 550.679 643.835 550.784 643.73C550.889 643.625 551.032 643.566 551.18 643.566H564.61C564.917 643.57 565.162 643.82 565.16 644.126L565.16 646.956H573.56V644.126C573.56 643.978 573.619 643.835 573.724 643.73C573.829 643.625 573.972 643.566 574.12 643.566H587.55C587.699 643.566 587.842 643.625 587.947 643.73C588.052 643.835 588.111 643.978 588.11 644.126V646.956H596.5V644.126C596.5 643.978 596.559 643.835 596.664 643.73C596.769 643.625 596.912 643.566 597.06 643.566H610.49C610.639 643.566 610.782 643.625 610.887 643.73C610.992 643.835 611.051 643.978 611.05 644.126V646.956H650.22C657.638 646.955 663.652 652.968 663.65 660.386Z" fill="#3F3D56"/>
<rect x="60.5002" y="671.326" width="733" height="2" fill="#3F3D56"/>
<path d="M627.695 404.757H461.252V401.326H385.78V404.757H218.651C212.433 404.757 207.392 409.797 207.392 416.015L207.392 643.927C207.392 650.145 212.433 655.186 218.651 655.186H627.695C633.912 655.186 638.953 650.145 638.953 643.927V416.015C638.953 409.797 633.912 404.757 627.695 404.757Z" fill="#3F3D56"/>
<circle cx="423.5" cy="484.326" r="25" stroke="#D0CDE1" stroke-width="2"/>
<circle cx="415.5" cy="493.326" r="25" fill="#D0CDE1"/>
<rect x="80.446" y="661.223" width="28" height="28" fill="#D0CDE1"/>
<path d="M91.45 639.223V673.223H125.45V639.223H91.45ZM123.97 671.743H92.92V640.703H123.97V671.743Z" fill="#3F3D56"/>
<rect x="728.446" y="661.223" width="28" height="28" fill="#D0CDE1"/>
<path d="M739.45 639.223V673.223H773.45V639.223H739.45ZM771.97 671.743H740.92V640.703H771.97V671.743Z" fill="#3F3D56"/>
<circle cx="94.5801" cy="150.773" r="79.3404" fill="white"/>
<path d="M122.229 56.4899C115.045 55.5763 107.775 55.5763 100.591 56.4899C67.9089 60.781 40.719 83.7124 30.9756 115.202C28.8055 122.229 27.5766 129.514 27.321 136.864C27.2851 137.886 27.261 138.92 27.261 139.954C27.3074 186.409 64.955 224.056 111.41 224.103C113.201 224.103 114.992 224.042 116.759 223.934C120.908 223.674 125.03 223.103 129.093 222.227C169.15 213.613 197.182 177.404 195.487 136.467C193.791 95.5294 162.861 61.762 122.229 56.4899ZM137.748 217.347H137.736C130.96 219.659 123.906 221.062 116.759 221.518C114.992 221.638 113.201 221.698 111.41 221.698C66.2864 221.643 29.7204 185.077 29.6652 139.954C29.6652 138.92 29.6892 137.886 29.7253 136.864C31.4425 92.9773 67.4895 58.2672 111.41 58.209C151.401 58.2089 185.524 87.1469 192.057 126.605C198.588 166.068 175.61 204.458 137.748 217.347Z" fill="#3F3D56"/>
<rect x="110.208" y="63.0176" width="2.40426" height="16.8298" fill="#3F3D56"/>
<rect x="56.8634" y="101.531" width="2.40426" height="16.8298" transform="rotate(-45 56.8634 101.531)" fill="#3F3D56"/>
<rect x="36.8779" y="155.581" width="2.40426" height="16.8298" transform="rotate(-90 36.8779 155.581)" fill="#3F3D56"/>
<rect x="57.8579" y="195.204" width="2.40426" height="16.8298" transform="rotate(-135 57.8579 195.204)" fill="#3F3D56"/>
<rect x="154.761" y="98.3008" width="2.40426" height="16.8298" transform="rotate(-135 154.761 98.3008)" fill="#3F3D56"/>
<rect x="173.921" y="155.581" width="2.40426" height="16.8298" transform="rotate(-90 173.921 155.581)" fill="#3F3D56"/>
<rect x="153.768" y="198.435" width="2.40426" height="16.8298" transform="rotate(-45 153.768 198.435)" fill="#3F3D56"/>
<rect x="110.208" y="200.061" width="2.40426" height="16.8298" fill="#3F3D56"/>
<path d="M115.016 135.145C112.879 133.543 109.941 133.543 107.804 135.145C107.091 135.687 106.505 136.376 106.085 137.165C104.602 139.995 105.592 143.49 108.339 145.122C111.085 146.754 114.628 145.953 116.405 143.298C118.182 140.643 117.572 137.062 115.016 135.145ZM111.41 143.56C109.421 143.555 107.809 141.943 107.804 139.954C107.808 139.225 108.03 138.513 108.441 137.91C109.413 136.502 111.242 135.972 112.817 136.642C114.391 137.313 115.277 138.998 114.936 140.675C114.595 142.353 113.121 143.558 111.41 143.56Z" fill="#3F3D56"/>
<rect x="100.591" y="35.3682" width="21.6383" height="21.6383" fill="#3F3D56"/>
<ellipse cx="111.41" cy="28.7572" rx="28.8511" ry="10.2181" fill="#3F3D56"/>
<rect x="107.803" y="94.2725" width="7.21277" height="40.8723" fill="#3F3D56"/>
<rect y="220.44" width="226" height="2.40426" fill="#3F3D56"/>
<path d="M150.594 599.755C151.527 631.705 132.858 643.413 109.43 644.098C108.886 644.114 108.344 644.123 107.805 644.127C106.719 644.135 105.643 644.117 104.577 644.073C83.389 643.193 66.6173 631.946 65.7495 602.232C64.8515 571.483 103.018 531.529 105.882 528.574L105.887 528.571C105.996 528.459 106.052 528.402 106.052 528.402C106.052 528.402 149.661 567.807 150.594 599.755Z" fill="#D0CDE1"/>
<path d="M107.744 639.255L122.626 617.123L107.774 641.636L107.805 644.126C106.719 644.134 105.643 644.116 104.577 644.072L105.316 612.06L105.295 611.813L105.323 611.765L105.393 608.74L89.0953 585.078L105.374 606.476L105.432 607.116L105.989 582.929L91.9123 558.397L106.029 578.681L105.882 528.573L105.882 528.406L105.887 528.57L106.822 568.062L119.651 552.02L106.864 571.464L107.144 593.098L118.949 571.984L107.187 596.278L107.343 608.308L124.512 578.896L107.395 612.505L107.744 639.255Z" fill="#3F3D56"/>
<path d="M798.594 599.755C799.527 631.705 780.858 643.413 757.43 644.098C756.886 644.114 756.344 644.123 755.805 644.127C754.719 644.135 753.643 644.117 752.577 644.073C731.389 643.193 714.617 631.946 713.749 602.232C712.851 571.483 751.018 531.529 753.882 528.574L753.887 528.571C753.996 528.459 754.052 528.402 754.052 528.402C754.052 528.402 797.66 567.807 798.594 599.755Z" fill="#D0CDE1"/>
<path d="M755.744 639.255L770.626 617.123L755.774 641.636L755.805 644.126C754.719 644.134 753.643 644.116 752.578 644.072L753.316 612.06L753.295 611.813L753.323 611.765L753.393 608.74L737.095 585.078L753.374 606.476L753.432 607.116L753.989 582.929L739.912 558.397L754.029 578.681L753.882 528.573L753.882 528.406L753.887 528.57L754.822 568.062L767.651 552.02L754.864 571.464L755.144 593.098L766.95 571.984L755.187 596.278L755.343 608.308L772.512 578.896L755.395 612.505L755.744 639.255Z" fill="#3F3D56"/>
</svg>
